<svg width="16" height="16" viewBox="0 0 16 16" fill="none" xmlns="http://www.w3.org/2000/svg">
<g clip-path="url(#clip0_1_3552)">
<path d="M4.66663 16C4.57889 16.0005 4.49191 15.9837 4.41069 15.9506C4.32946 15.9174 4.25559 15.8685 4.19329 15.8067C4.13081 15.7447 4.08121 15.671 4.04737 15.5898C4.01352 15.5085 3.99609 15.4214 3.99609 15.3334C3.99609 15.2454 4.01352 15.1582 4.04737 15.077C4.08121 14.9958 4.13081 14.922 4.19329 14.86L9.63996 9.41338C10.0145 9.03837 10.2249 8.53004 10.2249 8.00004C10.2249 7.47004 10.0145 6.96171 9.63996 6.58671L4.19329 1.14004C4.06776 1.01451 3.99723 0.844243 3.99723 0.666709C3.99723 0.489174 4.06776 0.318911 4.19329 0.193376C4.31883 0.0678397 4.48909 -0.00268555 4.66663 -0.00268555C4.84416 -0.00268555 5.01442 0.0678397 5.13996 0.193376L10.5866 5.64004C10.897 5.94968 11.1433 6.31752 11.3114 6.72248C11.4794 7.12745 11.5659 7.56159 11.5659 8.00004C11.5659 8.43849 11.4794 8.87263 11.3114 9.2776C11.1433 9.68257 10.897 10.0504 10.5866 10.36L5.13996 15.8067C5.07767 15.8685 5.00379 15.9174 4.92256 15.9506C4.84134 15.9837 4.75436 16.0005 4.66663 16Z" fill="#2D2D2D"/>
</g>
<defs>
<clipPath id="clip0_1_3552">
<rect width="16" height="16" fill="white"/>
</clipPath>
</defs>
</svg>
