<svg aria-hidden="true" style="position: absolute; width: 0; height: 0; overflow: hidden;" version="1.1" xmlns="http://www.w3.org/2000/svg" xmlns:xlink="http://www.w3.org/1999/xlink">
<defs>
<symbol id="icon-excluziv" viewBox="0 0 32 32">
<path fill="#182840" style="fill: var(--color1, #182840)" d="M1.882 20.221c-1.713-5.654 0.128-11.865 4.669-15.634 4.026-3.341 9.723-4.241 14.606-2.356 4.797 1.842 8.31 6.211 9.167 11.265 0.899 5.14-1.199 10.494-5.226 13.793-5.012 4.069-12.251 4.241-17.562 0.6-0.685-0.471-1.285 0.642-0.643 1.071 5.14 3.512 12.036 3.727 17.348 0.428 4.84-2.998 7.753-8.438 7.539-14.092-0.214-5.611-3.47-10.88-8.438-13.493-5.054-2.613-11.308-2.399-16.063 0.728-5.954 3.855-8.652 11.265-6.596 18.033 0.214 0.771 1.413 0.428 1.199-0.343z"></path>
<path fill="#ff7534" style="fill: var(--color2, #ff7534)" d="M22.999 16.795c-0.471 3.898-4.069 6.682-7.967 6.211s-6.682-4.069-6.211-7.967c0.471-3.898 4.069-6.682 7.967-6.211s6.682 4.026 6.211 7.967z"></path>
</symbol>
<symbol id="icon-refresh" viewBox="0 0 34 32">
<path d="M32 2.458c0.575 0 1.042 0.466 1.042 1.042v8.333c0 0.575-0.466 1.042-1.042 1.042h-8.333c-0.575 0-1.042-0.466-1.042-1.042s0.466-1.042 1.042-1.042h7.292v-7.292c0-0.575 0.466-1.042 1.042-1.042z"></path>
<path d="M18.927 3.128c-2.58-0.508-5.254-0.248-7.684 0.746s-4.505 2.678-5.964 4.837c-1.459 2.158-2.237 4.695-2.237 7.288s0.778 5.13 2.237 7.288c1.459 2.159 3.534 3.842 5.964 4.837s5.104 1.254 7.684 0.746c2.58-0.508 4.948-1.761 6.805-3.599 0.409-0.405 1.068-0.401 1.473 0.008s0.401 1.068-0.008 1.473c-2.15 2.127-4.888 3.575-7.867 4.162s-6.068 0.287-8.876-0.862c-2.808-1.149-5.21-3.097-6.901-5.598s-2.594-5.444-2.594-8.455 0.903-5.954 2.594-8.455c1.691-2.501 4.093-4.449 6.901-5.598s5.897-1.449 8.876-0.862c2.979 0.587 5.717 2.034 7.867 4.161 0 0-0-0 0 0l5.535 5.457c0.41 0.404 0.414 1.063 0.011 1.473s-1.063 0.414-1.473 0.011l-5.537-5.459c-1.857-1.838-4.225-3.091-6.805-3.599z"></path>
</symbol>
<symbol id="icon-search" viewBox="0 0 32 32">
<path d="M31.415 28.594l-6.193-6.196c4.634-6.193 3.371-14.97-2.822-19.605s-14.97-3.371-19.605 2.822-3.371 14.97 2.822 19.605c4.975 3.723 11.807 3.723 16.782 0l6.196 6.196c0.779 0.779 2.041 0.779 2.82 0s0.779-2.041 0-2.82v-0.003zM14.060 24.024c-5.504 0-9.966-4.462-9.966-9.966s4.462-9.966 9.966-9.966c5.504 0 9.966 4.462 9.966 9.966-0.006 5.502-4.464 9.96-9.966 9.966z"></path>
</symbol>
<symbol id="icon-megaphone" viewBox="0 0 30 32">
<path fill="#979ea9" style="fill: var(--color3, #979ea9)" d="M28.863 20.863c-0.194 0-0.386-0.045-0.56-0.132l-2.51-1.255c-0.298-0.149-0.524-0.41-0.63-0.726s-0.081-0.661 0.068-0.958 0.41-0.524 0.726-0.63c0.316-0.105 0.661-0.081 0.959 0.068l2.51 1.255c0.253 0.126 0.456 0.334 0.577 0.591s0.15 0.546 0.085 0.821c-0.065 0.275-0.221 0.521-0.443 0.696s-0.497 0.271-0.78 0.27zM26.914 9.444l2.51-1.255c0.298-0.149 0.524-0.41 0.63-0.726s0.081-0.661-0.068-0.958-0.41-0.524-0.726-0.63c-0.316-0.105-0.661-0.081-0.959 0.068l-2.51 1.255c-0.298 0.149-0.524 0.41-0.63 0.726s-0.081 0.661 0.068 0.958c0.149 0.298 0.41 0.524 0.726 0.63s0.661 0.081 0.959-0.068zM30.118 13.334c0-0.333-0.132-0.652-0.368-0.887s-0.555-0.368-0.887-0.368h-2.51c-0.333 0-0.652 0.132-0.887 0.368s-0.368 0.555-0.368 0.887c0 0.333 0.132 0.652 0.368 0.887s0.555 0.368 0.887 0.368h2.51c0.333 0 0.652-0.132 0.887-0.368s0.368-0.555 0.368-0.887zM22.588 24.628v-22.588c0-0.333-0.132-0.652-0.368-0.887s-0.555-0.368-0.887-0.368-0.652 0.132-0.887 0.368c-0.235 0.235-0.367 0.555-0.367 0.887 0 3.701-3.241 5.020-6.275 5.020h-8.784c-1.331 0-2.608 0.529-3.549 1.47s-1.47 2.218-1.47 3.549v2.51c0 1.331 0.529 2.608 1.47 3.549s2.218 1.47 3.549 1.47h8.784c3.033 0 6.275 1.319 6.275 5.020 0 0.333 0.132 0.652 0.367 0.887s0.555 0.367 0.887 0.367 0.652-0.132 0.887-0.367c0.235-0.235 0.368-0.555 0.368-0.887zM10.273 22.118h-5.253c-0.584-0.002-1.166-0.073-1.734-0.209l3.137 7.005c0.263 0.592 0.693 1.095 1.236 1.448s1.178 0.541 1.826 0.541c0.516-0.001 1.023-0.13 1.475-0.377s0.836-0.603 1.116-1.036 0.447-0.929 0.485-1.443c0.039-0.514-0.052-1.030-0.263-1.5l-2.025-4.427z"></path>
</symbol>
<symbol id="icon-icon" viewBox="0 0 32 32">
<path fill="#fff" style="fill: var(--color4, #fff)" opacity="0.6" d="M16 32c8.836 0 16-7.164 16-16s-7.164-16-16-16c-8.837 0-16 7.163-16 16s7.163 16 16 16zM16.072 10.483l4.883 3.501c0.324 0.232 0.588 0.536 0.769 0.886s0.276 0.737 0.276 1.13c0 0.393-0.095 0.78-0.276 1.13s-0.445 0.654-0.769 0.886l-4.883 3.498c-0.381 0.274-0.833 0.439-1.304 0.478s-0.945-0.052-1.367-0.261c-0.422-0.209-0.777-0.528-1.024-0.922s-0.378-0.848-0.377-1.31v-7c0-0.462 0.132-0.915 0.379-1.308s0.602-0.712 1.024-0.921c0.422-0.209 0.894-0.299 1.365-0.262s0.922 0.202 1.304 0.475z"></path>
</symbol>
<symbol id="icon-arrowright" viewBox="0 0 32 32">
<path d="M4.167 16c0-0.46 0.373-0.833 0.833-0.833h22c0.46 0 0.833 0.373 0.833 0.833s-0.373 0.833-0.833 0.833h-22c-0.46 0-0.833-0.373-0.833-0.833z"></path>
<path d="M17.411 6.411c0.325-0.325 0.853-0.325 1.179 0l9 9c0.325 0.325 0.325 0.853 0 1.179l-9 9c-0.325 0.325-0.853 0.325-1.179 0s-0.325-0.853 0-1.179l8.411-8.411-8.411-8.411c-0.325-0.325-0.325-0.853 0-1.179z"></path>
</symbol>
<symbol id="icon-video" viewBox="0 0 32 32">
<path fill="#979ea9" style="fill: var(--color3, #979ea9)" d="M16 32c8.837 0 16-7.163 16-16s-7.163-16-16-16c-8.837 0-16 7.163-16 16s7.163 16 16 16zM16.072 10.483l4.883 3.501c0.324 0.232 0.587 0.536 0.769 0.886s0.276 0.737 0.276 1.13c0 0.393-0.095 0.78-0.276 1.13s-0.445 0.654-0.769 0.886l-4.883 3.498c-0.381 0.274-0.833 0.439-1.304 0.477s-0.945-0.052-1.367-0.261c-0.422-0.209-0.777-0.528-1.024-0.922s-0.378-0.847-0.377-1.31v-7c0-0.462 0.132-0.915 0.379-1.308s0.602-0.712 1.024-0.921c0.422-0.209 0.894-0.299 1.365-0.262s0.922 0.202 1.304 0.475z"></path>
</symbol>
<symbol id="icon-firenews" viewBox="0 0 26 32">
<path fill="#ff7534" style="fill: var(--color2, #ff7534)" d="M16.795 19.471c0-1.6-1.1-3.787-3.093-6.158-0.11-0.132-0.248-0.237-0.405-0.309s-0.326-0.108-0.498-0.106c-0.173-0.001-0.344 0.036-0.501 0.108s-0.297 0.177-0.409 0.309c-2.182 2.557-3.249 4.818-3.065 6.551 0.073 0.548 0.261 1.074 0.551 1.545s0.678 0.873 1.136 1.183c0.648 0.531 1.451 0.837 2.288 0.872 1.059-0.001 2.075-0.422 2.824-1.172s1.17-1.765 1.171-2.824z"></path>
<path fill="#ff7534" style="fill: var(--color2, #ff7534)" d="M17.737 3.093c-0.838-0.713-1.718-1.459-2.614-2.274-0.34-0.308-0.743-0.539-1.181-0.675s-0.901-0.175-1.356-0.114c-0.441 0.058-0.863 0.213-1.238 0.452s-0.692 0.559-0.93 0.934c-1.271 2.125-2.17 4.451-2.658 6.878-0.191-0.277-0.361-0.567-0.508-0.869-0.151-0.318-0.378-0.594-0.662-0.803s-0.614-0.344-0.963-0.394c-0.349-0.050-0.704-0.013-1.035 0.108s-0.626 0.322-0.861 0.585c-1.788 1.829-2.78 4.291-2.757 6.849-0.025 2.613 0.825 5.159 2.414 7.233s3.826 3.557 6.355 4.214c0.968 0.244 1.963 0.37 2.961 0.376-1.276-0.048-2.502-0.506-3.497-1.308-0.689-0.485-1.268-1.109-1.7-1.832s-0.707-1.529-0.807-2.365c-0.245-2.357 0.953-5.102 3.561-8.157 0.313-0.367 0.702-0.661 1.14-0.862s0.915-0.305 1.397-0.304h0.011c0.481 0 0.955 0.106 1.391 0.308s0.822 0.498 1.132 0.865c1.64 1.949 3.598 4.837 3.598 7.532-0.002 1.553-0.594 3.047-1.655 4.18s-2.512 1.823-4.062 1.928c3.063-0.099 5.968-1.386 8.098-3.589s3.32-5.149 3.315-8.214c-0.005-4.832-3.197-7.541-6.892-10.683z"></path>
</symbol>
<symbol id="icon-camera" viewBox="0 0 32 32">
<path fill="#979ea9" style="fill: var(--color3, #979ea9)" d="M23.627 4l-1.884-2.443c-0.375-0.483-0.855-0.874-1.404-1.144s-1.152-0.411-1.764-0.413h-5.152c-0.612 0.002-1.215 0.144-1.764 0.413s-1.029 0.661-1.404 1.144l-1.884 2.443h15.256z"></path>
<path fill="#979ea9" style="fill: var(--color3, #979ea9)" d="M15.999 24c2.946 0 5.333-2.388 5.333-5.333s-2.388-5.333-5.333-5.333-5.333 2.388-5.333 5.333c0 2.945 2.388 5.333 5.333 5.333z"></path>
<path fill="#979ea9" style="fill: var(--color3, #979ea9)" d="M25.333 6.667h-18.667c-1.767 0.002-3.462 0.705-4.712 1.955s-1.953 2.944-1.955 4.712v12c0.002 1.768 0.705 3.462 1.955 4.712s2.944 1.953 4.712 1.955h18.667c1.767-0.002 3.462-0.705 4.712-1.955s1.953-2.944 1.955-4.712v-12c-0.002-1.767-0.705-3.462-1.955-4.712s-2.944-1.953-4.712-1.955zM16 26.667c-1.582 0-3.129-0.469-4.445-1.348s-2.341-2.129-2.946-3.59-0.764-3.070-0.455-4.622c0.309-1.552 1.071-2.977 2.189-4.096s2.544-1.881 4.096-2.189c1.552-0.309 3.16-0.15 4.622 0.455s2.711 1.631 3.59 2.946 1.348 2.862 1.348 4.445c-0.002 2.121-0.846 4.155-2.345 5.655s-3.534 2.343-5.655 2.345z"></path>
</symbol>
<symbol id="icon-fire" viewBox="0 0 30 32">
<path fill="#ff7534" style="fill: var(--color2, #ff7534)" d="M23.464 8.69c-1.548-2.476-3.559-4.607-5.309-6.357-0.108-0.107-0.24-0.187-0.385-0.232s-0.299-0.056-0.448-0.030c-0.151 0.024-0.294 0.084-0.416 0.175s-0.221 0.211-0.286 0.349l-3.678 7.714-3.833-2.56c-0.21-0.139-0.467-0.19-0.714-0.143-0.123 0.024-0.24 0.072-0.344 0.142s-0.194 0.159-0.263 0.263c-2.321 3.5-3.5 6.667-3.5 9.417 0 2.905 1.154 5.691 3.208 7.745s4.84 3.208 7.745 3.208c2.905 0 5.691-1.154 7.744-3.208s3.208-4.84 3.208-7.745c0-2.964-0.893-5.821-2.726-8.738zM22.298 18.524c-0.225 1.501-0.926 2.891-2 3.965s-2.463 1.774-3.965 2h-0.143c-0.239-0.002-0.469-0.093-0.643-0.256s-0.282-0.386-0.3-0.624 0.054-0.475 0.203-0.662c0.148-0.187 0.361-0.313 0.597-0.35 1.095-0.178 2.105-0.696 2.889-1.48s1.302-1.795 1.48-2.889c0.013-0.128 0.052-0.253 0.115-0.365s0.148-0.212 0.249-0.291 0.219-0.136 0.344-0.169c0.125-0.032 0.255-0.039 0.382-0.020s0.25 0.064 0.359 0.132 0.204 0.158 0.278 0.263c0.074 0.106 0.126 0.225 0.152 0.352s0.027 0.256 0.001 0.383v0.012z"></path>
</symbol>
<symbol id="icon-select" viewBox="0 0 53 32">
<path d="M6.805 0h39.723c0.703 0 1.39 0.209 1.975 0.599s1.040 0.946 1.309 1.596c0.269 0.65 0.339 1.364 0.202 2.054s-0.476 1.323-0.973 1.82l-19.861 19.861c-0.667 0.667-1.571 1.041-2.514 1.041s-1.847-0.374-2.514-1.041l-19.861-19.861c-0.497-0.497-0.836-1.131-0.973-1.82s-0.067-1.404 0.202-2.054c0.269-0.65 0.725-1.205 1.309-1.596s1.272-0.599 1.975-0.599z"></path>
</symbol>
<symbol id="icon-burger" viewBox="0 0 60 32">
<path d="M59.356 0h-59.356v8h59.356v-8zM42.868 24h-42.868v8h42.868v-8z"></path>
</symbol>
<symbol id="icon-microphone" viewBox="0 0 30 32">
<path fill="#979ea9" style="fill: var(--color3, #979ea9)" d="M11.721 14.329c-1.194-1.508-1.785-3.405-1.659-5.324s0.961-3.723 2.343-5.060l0.794-0.796c1.338-1.381 3.141-2.215 5.060-2.342s3.816 0.465 5.323 1.659c0.806 0.669 1.463 1.499 1.927 2.438s0.725 1.965 0.766 3.012c0.044 1.042-0.128 2.082-0.507 3.054s-0.954 1.855-1.691 2.593l-1.255 1.255c-1.414 1.411-3.33 2.205-5.328 2.206-0.108 0-0.216-0.003-0.324-0.008-1.046-0.041-2.072-0.301-3.011-0.764s-1.77-1.118-2.439-1.924zM23.538 20.863c-0.864-0.002-1.72 0.167-2.519 0.498s-1.523 0.816-2.133 1.429c-1.772 1.782-3.88 3.195-6.201 4.157s-4.811 1.454-7.324 1.447h-1.443c-0.278 0-0.551-0.082-0.782-0.236s-0.412-0.374-0.519-0.631-0.135-0.54-0.080-0.813c0.054-0.273 0.188-0.524 0.385-0.721l0.878-0.878c2.179-0.146 4.23-1.079 5.773-2.625l3.832-3.832c-1.392-0.618-2.625-1.545-3.605-2.711-0.548-0.657-1.005-1.385-1.358-2.165l-3.799 3.795c-1.547 1.542-2.48 3.594-2.625 5.773l-0.878 0.878c-0.545 0.549-0.916 1.247-1.065 2.006s-0.070 1.545 0.227 2.26c0.297 0.714 0.799 1.325 1.443 1.754s1.4 0.658 2.174 0.658h1.443c2.843 0.008 5.658-0.548 8.285-1.636s5.011-2.686 7.015-4.701c0.569-0.569 1.294-0.956 2.083-1.113s1.607-0.077 2.351 0.231c0.744 0.308 1.379 0.829 1.826 1.498s0.686 1.456 0.686 2.26v2.206c0 0.333 0.132 0.652 0.367 0.887s0.555 0.368 0.887 0.368 0.652-0.132 0.887-0.368c0.235-0.235 0.368-0.555 0.368-0.887v-2.206c-0.002-1.744-0.696-3.416-1.93-4.649s-2.906-1.927-4.65-1.929z"></path>
</symbol>
</defs>
</svg>
