<svg width="23" height="23" viewBox="0 0 23 23" fill="none" xmlns="http://www.w3.org/2000/svg">
<path d="M11.4997 2.25C6.43692 2.25 2.33301 6.35392 2.33301 11.4167C2.33301 16.4794 6.43692 20.5833 11.4997 20.5833C16.5624 20.5833 20.6663 16.4794 20.6663 11.4167C20.6663 6.35392 16.5624 2.25 11.4997 2.25Z" fill="url(#paint0_linear_1_4352)"/>
<path d="M12.7412 13.8461H15.1135L15.4862 11.4362H12.7412V10.119C12.7412 9.11796 13.0685 8.23017 14.0048 8.23017H15.5095V6.12734C15.2451 6.09159 14.6859 6.01367 13.6295 6.01367C11.423 6.01367 10.1296 7.17876 10.1296 9.83342V11.4367H7.86133V13.8466H10.1292V20.4704C10.5783 20.5373 11.0335 20.5832 11.5005 20.5832C11.9226 20.5832 12.3347 20.5447 12.7412 20.4897V13.8461Z" fill="white"/>
<defs>
<linearGradient id="paint0_linear_1_4352" x1="5.0798" y1="4.99679" x2="19.1149" y2="19.0319" gradientUnits="userSpaceOnUse">
<stop stop-color="#2AA4F4"/>
<stop offset="1" stop-color="#007AD9"/>
</linearGradient>
</defs>
</svg>
