<svg width="23" height="23" viewBox="0 0 23 23" fill="none" xmlns="http://www.w3.org/2000/svg">
<path d="M17.4348 14.3985C17.4348 14.683 17.1999 14.916 16.9129 14.916H5.86675C5.57972 14.916 5.34485 14.683 5.34485 14.3985V3.57418C5.34485 3.28967 5.57972 3.05664 5.86675 3.05664H16.9132C17.2002 3.05664 17.4351 3.28967 17.4351 3.57418V14.3985H17.4348Z" fill="#0C9D58"/>
<path opacity="0.2" d="M17.4347 5.83982L13.2948 5.30762L17.4347 6.41694V5.83982Z" fill="#004D40"/>
<path opacity="0.2" d="M11.5896 3.62095L5.32019 6.41703L12.2492 3.89797V3.8911C12.1274 3.63031 11.8307 3.50864 11.5896 3.62095V3.62095Z" fill="#004D40"/>
<path opacity="0.2" d="M16.9132 3.05664H5.86675C5.57972 3.05664 5.34485 3.28967 5.34485 3.57418V3.69023C5.34485 3.40572 5.57972 3.17269 5.86675 3.17269H16.9132C17.2002 3.17269 17.4351 3.40572 17.4351 3.69023V3.57418C17.4348 3.28967 17.2002 3.05664 16.9132 3.05664Z" fill="white"/>
<path d="M8.02512 14.0666C7.95048 14.3446 8.09946 14.6282 8.35619 14.6968L18.5874 17.4451C18.8442 17.5138 19.1153 17.3425 19.1896 17.0645L21.5998 8.08017C21.6745 7.80221 21.5255 7.51864 21.2688 7.45001L11.0375 4.70166C10.7808 4.63303 10.5097 4.8043 10.4354 5.08225L8.02512 14.0666V14.0666Z" fill="#EA4335"/>
<path opacity="0.2" d="M19.2949 11.2871L19.8331 14.5524L19.2949 16.5592V11.2871Z" fill="#3E2723"/>
<path opacity="0.2" d="M13.3438 5.44043L13.826 5.56989L14.1252 7.58514L13.3438 5.44043Z" fill="#3E2723"/>
<path opacity="0.2" d="M21.269 7.45001L11.0378 4.70166C10.7811 4.63303 10.51 4.8043 10.4356 5.08225L8.02539 14.0666C8.02133 14.0816 8.02039 14.0969 8.01758 14.1119L10.4097 5.19549C10.4843 4.91754 10.7554 4.74627 11.0119 4.81491L21.2431 7.56325C21.4858 7.62814 21.6298 7.8855 21.582 8.14849L21.6004 8.08017C21.6748 7.80221 21.5258 7.51864 21.269 7.45001Z" fill="white"/>
<path d="M16.0833 12.9601C16.1817 13.2306 16.058 13.526 15.8084 13.6168L5.01219 17.5415C4.76233 17.6323 4.47748 17.4854 4.3791 17.2149L1.19398 8.47448C1.09559 8.20401 1.21927 7.90859 1.46882 7.81781L12.2651 3.89307C12.5149 3.80229 12.7998 3.94922 12.8982 4.21969L16.0833 12.9601V12.9601Z" fill="#FFC107"/>
<path opacity="0.2" d="M1.23494 8.58394C1.13655 8.31347 1.26024 8.01804 1.50979 7.92726L12.306 4.00221C12.5531 3.91237 12.8339 4.05556 12.9354 4.32041L12.8982 4.21871C12.7995 3.94824 12.5147 3.80131 12.2651 3.89209L1.46887 7.81714C1.21901 7.90792 1.09533 8.20335 1.19402 8.47381L4.37915 17.2142C4.38008 17.2171 4.38196 17.2196 4.38321 17.2227L1.23494 8.58394Z" fill="white"/>
<path d="M19.2954 19.2541C19.2954 19.5414 19.0599 19.7766 18.7723 19.7766H4.0085C3.72085 19.7766 3.48535 19.5414 3.48535 19.2541V8.10749C3.48535 7.82018 3.72085 7.58496 4.0085 7.58496H18.7723C19.0599 7.58496 19.2954 7.82018 19.2954 8.10749V19.2541Z" fill="#4285F4"/>
<path d="M16.4762 11.998H12.0586V10.8369H16.4762C16.6045 10.8369 16.7085 10.9408 16.7085 11.069V11.7656C16.7085 11.8938 16.6045 11.998 16.4762 11.998V11.998ZM16.4762 16.41H12.0586V15.2489H16.4762C16.6045 15.2489 16.7085 15.3528 16.7085 15.481V16.1776C16.7085 16.3062 16.6045 16.41 16.4762 16.41ZM17.1736 14.2039H12.0586V13.0428H17.1736C17.302 13.0428 17.406 13.1466 17.406 13.2749V13.9715C17.406 14.1 17.302 14.2039 17.1736 14.2039V14.2039Z" fill="white"/>
<path opacity="0.2" d="M18.7723 19.6612H4.0085C3.72085 19.6612 3.48535 19.426 3.48535 19.1387V19.2547C3.48535 19.542 3.72085 19.7773 4.0085 19.7773H18.7723C19.0599 19.7773 19.2954 19.542 19.2954 19.2547V19.1387C19.2954 19.426 19.0599 19.6612 18.7723 19.6612Z" fill="#1A237E"/>
<path opacity="0.2" d="M4.0085 7.70101H18.7723C19.0599 7.70101 19.2954 7.93623 19.2954 8.22354V8.10749C19.2954 7.82018 19.0599 7.58496 18.7723 7.58496H4.0085C3.72085 7.58496 3.48535 7.82018 3.48535 8.10749V8.22354C3.48535 7.93623 3.72085 7.70101 4.0085 7.70101V7.70101Z" fill="white"/>
<path d="M8.10577 13.1591V14.2064H9.61026C9.48595 14.8443 8.92438 15.307 8.10577 15.307C7.19252 15.307 6.45199 14.5355 6.45199 13.6233C6.45199 12.7112 7.19252 11.9397 8.10577 11.9397C8.51711 11.9397 8.88534 12.081 9.17612 12.3577V12.3583L9.97224 11.5632C9.48876 11.113 8.85817 10.8369 8.10546 10.8369C6.56474 10.8369 5.31543 12.0844 5.31543 13.6236C5.31543 15.1628 6.56443 16.4104 8.10546 16.4104C9.71676 16.4104 10.7768 15.2789 10.7768 13.687C10.7768 13.5045 10.7599 13.3285 10.7328 13.1591H8.10577V13.1591Z" fill="white"/>
<g opacity="0.2">
<path d="M8.13489 14.2061V14.3221H9.61126C9.62219 14.284 9.63156 14.2454 9.63937 14.2061H8.13489Z" fill="#1A237E"/>
<path d="M8.13488 16.4096C6.61353 16.4096 5.37733 15.1933 5.34641 13.6809C5.3461 13.7002 5.34485 13.7196 5.34485 13.7389C5.34485 15.2781 6.59385 16.5256 8.13488 16.5256C9.74618 16.5256 10.8062 15.3942 10.8062 13.8022C10.8062 13.7895 10.8047 13.7776 10.8047 13.7648C10.77 15.3152 9.71963 16.4096 8.13488 16.4096ZM9.20523 12.3573C8.91445 12.0809 8.5459 11.9392 8.13488 11.9392C7.22163 11.9392 6.4811 12.7107 6.4811 13.6229C6.4811 13.6425 6.48329 13.6616 6.48391 13.6809C6.51483 12.7943 7.24099 12.0553 8.13488 12.0553C8.54621 12.0553 8.91445 12.1966 9.20523 12.4733V12.4739L10.0594 11.6207C10.0395 11.602 10.0173 11.5855 9.99667 11.5674L9.20554 12.3579L9.20523 12.3573Z" fill="#1A237E"/>
</g>
<path opacity="0.2" d="M16.7085 11.8817V11.7656C16.7085 11.8938 16.6045 11.9977 16.4762 11.9977H12.0586V12.1138H16.4762C16.6045 12.1141 16.7085 12.0102 16.7085 11.8817ZM16.4762 16.4101H12.0586V16.5261H16.4762C16.6045 16.5261 16.7085 16.4222 16.7085 16.294V16.178C16.7085 16.3062 16.6045 16.4101 16.4762 16.4101ZM17.1736 14.2039H12.0586V14.3199H17.1736C17.302 14.3199 17.406 14.2161 17.406 14.0878V13.9718C17.406 14.1 17.302 14.2039 17.1736 14.2039Z" fill="#1A237E"/>
<path d="M21.2695 7.44932L17.4351 6.41923V3.57418C17.4351 3.28967 17.2002 3.05664 16.9132 3.05664H5.86676C5.57973 3.05664 5.34486 3.28967 5.34486 3.57418V6.408L1.46887 7.81712C1.21901 7.9079 1.09533 8.20332 1.19402 8.47379L3.48495 14.761V19.2541C3.48495 19.5414 3.72044 19.7766 4.0081 19.7766H18.7719C19.0595 19.7766 19.295 19.5414 19.295 19.2541V16.6745L21.6009 8.07947C21.6753 7.80152 21.5263 7.51795 21.2695 7.44932V7.44932Z" fill="url(#paint0_radial_1_4364)"/>
<line x1="13.0537" y1="9.8252" x2="17.1515" y2="9.8252" stroke="#DBDBDB"/>
<defs>
<radialGradient id="paint0_radial_1_4364" cx="0" cy="0" r="1" gradientUnits="userSpaceOnUse" gradientTransform="translate(5.77121 4.41127) scale(19.8971 19.8735)">
<stop stop-color="white" stop-opacity="0.1"/>
<stop offset="1" stop-color="white" stop-opacity="0"/>
</radialGradient>
</defs>
</svg>
