<svg width="23" height="23" viewBox="0 0 23 23" fill="none" xmlns="http://www.w3.org/2000/svg">
<path d="M16.0908 19.6621L6.92416 19.6708C4.90749 19.6726 3.25612 18.0245 3.25383 16.0078L3.24512 6.84115C3.24329 4.82449 4.89145 3.17311 6.90812 3.17082L16.0748 3.16211C18.0914 3.16028 19.7428 4.80844 19.7451 6.82511L19.7538 15.9918C19.7561 18.0089 18.1075 19.6603 16.0908 19.6621Z" fill="url(#paint0_radial_1_4343)"/>
<path d="M16.0908 19.6621L6.92416 19.6708C4.90749 19.6726 3.25612 18.0245 3.25383 16.0078L3.24512 6.84115C3.24329 4.82449 4.89145 3.17311 6.90812 3.17082L16.0748 3.16211C18.0914 3.16028 19.7428 4.80844 19.7451 6.82511L19.7538 15.9918C19.7561 18.0089 18.1075 19.6603 16.0908 19.6621Z" fill="url(#paint1_radial_1_4343)"/>
<path d="M11.5003 14.6257C9.73162 14.6257 8.29199 13.1865 8.29199 11.4173C8.29199 9.64815 9.73162 8.20898 11.5003 8.20898C13.269 8.20898 14.7087 9.64815 14.7087 11.4173C14.7087 13.1865 13.269 14.6257 11.5003 14.6257ZM11.5003 9.12565C10.2367 9.12565 9.20866 10.1537 9.20866 11.4173C9.20866 12.6809 10.2367 13.709 11.5003 13.709C12.764 13.709 13.792 12.6809 13.792 11.4173C13.792 10.1537 12.764 9.12565 11.5003 9.12565Z" fill="white"/>
<path d="M14.9375 8.66699C15.3172 8.66699 15.625 8.35919 15.625 7.97949C15.625 7.5998 15.3172 7.29199 14.9375 7.29199C14.5578 7.29199 14.25 7.5998 14.25 7.97949C14.25 8.35919 14.5578 8.66699 14.9375 8.66699Z" fill="white"/>
<path d="M14.2503 17.3757H8.75033C6.98162 17.3757 5.54199 15.9365 5.54199 14.1673V8.66732C5.54199 6.89815 6.98162 5.45898 8.75033 5.45898H14.2503C16.019 5.45898 17.4587 6.89815 17.4587 8.66732V14.1673C17.4587 15.9365 16.019 17.3757 14.2503 17.3757ZM8.75033 6.37565C7.4867 6.37565 6.45866 7.40369 6.45866 8.66732V14.1673C6.45866 15.4309 7.4867 16.459 8.75033 16.459H14.2503C15.514 16.459 16.542 15.4309 16.542 14.1673V8.66732C16.542 7.40369 15.514 6.37565 14.2503 6.37565H8.75033Z" fill="white"/>
<defs>
<radialGradient id="paint0_radial_1_4343" cx="0" cy="0" r="1" gradientUnits="userSpaceOnUse" gradientTransform="translate(9.3822 19.6827) scale(20.5787)">
<stop stop-color="#FFDD55"/>
<stop offset="0.328" stop-color="#FF543F"/>
<stop offset="0.348" stop-color="#FC5245"/>
<stop offset="0.504" stop-color="#E64771"/>
<stop offset="0.643" stop-color="#D53E91"/>
<stop offset="0.761" stop-color="#CC39A4"/>
<stop offset="0.841" stop-color="#C837AB"/>
</radialGradient>
<radialGradient id="paint1_radial_1_4343" cx="0" cy="0" r="1" gradientUnits="userSpaceOnUse" gradientTransform="translate(5.90162 2.956) scale(13.6643 9.10452)">
<stop stop-color="#4168C9"/>
<stop offset="0.999" stop-color="#4168C9" stop-opacity="0"/>
</radialGradient>
</defs>
</svg>
