<svg width="23" height="23" viewBox="0 0 23 23" fill="none" xmlns="http://www.w3.org/2000/svg">
<path d="M11.4997 2.25C9.06852 2.25 6.73695 3.21577 5.01786 4.93485C3.29878 6.65394 2.33301 8.98552 2.33301 11.4167C2.33301 13.8478 3.29878 16.1794 5.01786 17.8985C6.73695 19.6176 9.06852 20.5833 11.4997 20.5833C13.9308 20.5833 16.2624 19.6176 17.9815 17.8985C19.7006 16.1794 20.6663 13.8478 20.6663 11.4167C20.6663 8.98552 19.7006 6.65394 17.9815 4.93485C16.2624 3.21577 13.9308 2.25 11.4997 2.25V2.25Z" fill="#29B6F6"/>
<path d="M16.0601 7.29232L14.3432 16.0584C14.3432 16.0584 14.2694 16.459 13.7725 16.459C13.5085 16.459 13.3724 16.3334 13.3724 16.3334L9.65351 13.2474L7.83392 12.3303L5.49872 11.7093C5.49872 11.7093 5.08301 11.5892 5.08301 11.2454C5.08301 10.959 5.51063 10.8224 5.51063 10.8224L15.2805 6.94124C15.28 6.94078 15.5788 6.83353 15.7965 6.83399C15.9304 6.83399 16.083 6.89128 16.083 7.06315C16.083 7.17774 16.0601 7.29232 16.0601 7.29232Z" fill="white"/>
<path d="M11.042 14.3983L9.47179 15.9448C9.47179 15.9448 9.4035 15.9975 9.31229 15.9998C9.28066 16.0007 9.24675 15.9956 9.21191 15.9801L9.65375 13.2461L11.042 14.3983Z" fill="#B0BEC5"/>
<path d="M14.2025 8.75678C14.125 8.65594 13.982 8.63761 13.8812 8.71415L7.83301 12.3336C7.83301 12.3336 8.79826 15.0341 8.94538 15.5016C9.09297 15.9696 9.21122 15.9806 9.21122 15.9806L9.65305 13.2466L14.1594 9.07761C14.2602 9.00107 14.279 8.85761 14.2025 8.75678Z" fill="#CFD8DC"/>
</svg>
