<svg width="23" height="23" viewBox="0 0 23 23" fill="none" xmlns="http://www.w3.org/2000/svg">
<path fill-rule="evenodd" clip-rule="evenodd" d="M18.8352 19.6528L4.18088 19.667C3.67717 19.6674 3.26467 19.2559 3.26421 18.7522L3.25 4.09787C3.24954 3.59416 3.66113 3.18166 4.16483 3.1812L18.8191 3.16699C19.3228 3.16653 19.7353 3.57812 19.7358 4.08183L19.75 18.7361C19.7505 19.2398 19.3389 19.6523 18.8352 19.6528Z" fill="url(#paint0_linear_1_4357)"/>
<path fill-rule="evenodd" clip-rule="evenodd" d="M13.8866 9.86155C14.609 10.3776 15.494 10.681 16.4496 10.681V8.84267C16.2686 8.84267 16.0885 8.82388 15.9116 8.7863V10.2333C14.9559 10.2333 14.0713 9.92938 13.3486 9.41376V13.1648C13.3486 15.0412 11.8264 16.5624 9.9491 16.5624C9.24877 16.5624 8.59747 16.3506 8.05664 15.9876C8.67402 16.6183 9.53477 17.0097 10.4872 17.0097C12.3645 17.0097 13.8866 15.4885 13.8866 13.6121V9.86155ZM14.5508 8.00713C14.1818 7.60426 13.9393 7.08313 13.8866 6.50701V6.27051H13.3765C13.5048 7.00247 13.943 7.62809 14.5508 8.00713ZM9.24418 14.548C9.03793 14.2776 8.92656 13.9471 8.92701 13.607C8.92701 12.7486 9.62322 12.0528 10.4821 12.0528C10.6421 12.0528 10.8011 12.0771 10.9538 12.1257V10.2465C10.7755 10.2223 10.5958 10.2117 10.4157 10.2154V11.6779C10.2631 11.6293 10.104 11.605 9.9436 11.605C9.08468 11.605 8.38847 12.3008 8.38847 13.1593C8.38893 13.7665 8.73681 14.2923 9.24418 14.548Z" fill="#EC407A"/>
<path fill-rule="evenodd" clip-rule="evenodd" d="M13.3489 9.41376C14.0712 9.92984 14.9563 10.2333 15.9119 10.2333V8.7863C15.3784 8.67263 14.9063 8.39397 14.5511 8.00667C13.9434 7.62763 13.5057 7.00247 13.3773 6.27051H12.0376V13.6121C12.0344 14.4678 11.3396 15.1608 10.4825 15.1608C9.97741 15.1608 9.5287 14.9202 9.24453 14.5475C8.73716 14.2918 8.38928 13.7661 8.38928 13.1593C8.38928 12.3008 9.08549 11.605 9.94441 11.605C10.1089 11.605 10.2675 11.6307 10.4165 11.6779V10.2158C8.57216 10.2539 7.08899 11.76 7.08899 13.6125C7.08899 14.5375 7.45841 15.3758 8.05791 15.9881C8.59874 16.3511 9.25003 16.5628 9.95036 16.5628C11.8277 16.5628 13.3498 15.0416 13.3498 13.1652L13.3489 9.41376Z" fill="white"/>
<path fill-rule="evenodd" clip-rule="evenodd" d="M15.912 8.78728V8.39587C15.4307 8.39678 14.9595 8.26203 14.5512 8.0072C14.9123 8.40274 15.3881 8.67545 15.912 8.78728ZM13.3769 6.27103C13.3645 6.20091 13.3554 6.13078 13.349 6.05974V5.82324H11.4991V13.1653C11.4964 14.021 10.8011 14.714 9.94401 14.714C9.69238 14.714 9.45497 14.6544 9.24459 14.5481C9.52876 14.9207 9.97747 15.1613 10.4825 15.1613C11.3396 15.1613 12.0345 14.4683 12.0377 13.6126V6.27103H13.3769ZM10.4161 10.2164V9.79974C10.2616 9.77866 10.1058 9.76812 9.94951 9.76812C8.07172 9.76812 6.55005 11.2893 6.55005 13.1657C6.55005 14.3423 7.14817 15.379 8.05705 15.9886C7.45755 15.3763 7.08813 14.538 7.08813 13.6131C7.08813 11.7605 8.57176 10.2544 10.4161 10.2164Z" fill="#81D4FA"/>
<defs>
<linearGradient id="paint0_linear_1_4357" x1="11.4895" y1="3.23987" x2="11.4895" y2="19.6881" gradientUnits="userSpaceOnUse">
<stop stop-color="#4C4C4C"/>
<stop offset="1" stop-color="#343434"/>
</linearGradient>
</defs>
</svg>
