<svg width="23" height="23" viewBox="0 0 23 23" fill="none" xmlns="http://www.w3.org/2000/svg">
<path d="M21.1308 16.2573C20.9296 17.284 20.0748 18.0664 19.0188 18.213C17.3592 18.4573 14.5932 18.7507 11.4751 18.7507C8.40749 18.7507 5.64145 18.4573 3.93141 18.213C2.87541 18.0664 2.02016 17.284 1.81941 16.2573C1.6182 15.133 1.41699 13.4707 1.41699 11.4173C1.41699 9.36398 1.6182 7.70161 1.81941 6.57732C2.02062 5.55065 2.87541 4.76828 3.93141 4.62161C5.59103 4.37732 8.35708 4.08398 11.4751 4.08398C14.5932 4.08398 17.3088 4.37732 19.0188 4.62161C20.0748 4.76828 20.9301 5.55065 21.1308 6.57732C21.332 7.70161 21.5837 9.36398 21.5837 11.4173C21.5332 13.4707 21.332 15.133 21.1308 16.2573Z" fill="url(#paint0_linear_1_4329)"/>
<path opacity="0.05" d="M15.328 10.7017L10.0865 7.20736C9.82204 7.0309 9.48425 7.0144 9.20421 7.16474C8.92417 7.31461 8.75 7.60474 8.75 7.92236V14.911C8.75 15.2287 8.92417 15.5192 9.20421 15.6691C9.33162 15.7374 9.4705 15.7709 9.60937 15.7709C9.77621 15.7709 9.94213 15.7223 10.086 15.6265L15.3275 12.1322C15.5673 11.9722 15.7102 11.705 15.7102 11.4172C15.7107 11.1289 15.5673 10.8617 15.328 10.7017Z" fill="black"/>
<path opacity="0.07" d="M9.97912 7.40016L14.9245 10.6974C15.2403 10.9243 15.453 11.1273 15.453 11.3909C15.453 11.6544 15.3503 11.8382 15.1253 12.0023C14.9552 12.126 10.063 15.3774 10.063 15.3774C9.65003 15.6543 8.97949 15.5956 8.97949 14.6904V8.09087C8.97949 7.17191 9.70549 7.21774 9.97912 7.40016Z" fill="black"/>
<path d="M9.20801 14.8856V7.94873C9.20801 7.60819 9.58751 7.40469 9.87122 7.59398L15.0742 11.0626C15.3277 11.2313 15.3277 11.6035 15.0742 11.7726L9.87122 15.2413C9.58751 15.4296 9.20801 15.2266 9.20801 14.8856Z" fill="white"/>
<defs>
<linearGradient id="paint0_linear_1_4329" x1="4.99933" y1="4.94153" x2="19.4047" y2="19.3469" gradientUnits="userSpaceOnUse">
<stop stop-color="#F44F5A"/>
<stop offset="0.443" stop-color="#EE3D4A"/>
<stop offset="1" stop-color="#E52030"/>
</linearGradient>
</defs>
</svg>
