<svg width="12" height="12" viewBox="0 0 12 12" fill="none" xmlns="http://www.w3.org/2000/svg">
<g clip-path="url(#clip0_6050_909)">
<path d="M3.50095 12.0001C3.43514 12.0005 3.36991 11.9879 3.30899 11.963C3.24807 11.9381 3.19267 11.9014 3.14595 11.8551C3.09908 11.8086 3.06188 11.7533 3.0365 11.6924C3.01112 11.6315 2.99805 11.5661 2.99805 11.5001C2.99805 11.4341 3.01112 11.3687 3.0365 11.3078C3.06188 11.2469 3.09908 11.1916 3.14595 11.1451L7.23095 7.06009C7.51185 6.77884 7.66963 6.39759 7.66963 6.00009C7.66963 5.60259 7.51185 5.22134 7.23095 4.94009L3.14595 0.855093C3.05179 0.760941 2.9989 0.633244 2.9989 0.500093C2.9989 0.366942 3.05179 0.239245 3.14595 0.145093C3.2401 0.0509408 3.3678 -0.00195312 3.50095 -0.00195312C3.6341 -0.00195313 3.76179 0.0509408 3.85595 0.145093L7.94095 4.23009C8.17376 4.46232 8.35848 4.7382 8.48451 5.04192C8.61054 5.34565 8.67542 5.67126 8.67542 6.00009C8.67542 6.32893 8.61054 6.65453 8.48451 6.95826C8.35848 7.26199 8.17376 7.53786 7.94095 7.77009L3.85595 11.8551C3.80923 11.9014 3.75382 11.9381 3.6929 11.963C3.63198 11.9879 3.56675 12.0005 3.50095 12.0001Z" fill="white"/>
</g>
<defs>
<clipPath id="clip0_6050_909">
<rect width="12" height="12" fill="white"/>
</clipPath>
</defs>
</svg>
